<svg width="224" height="62" viewBox="0 0 224 62" fill="none" xmlns="http://www.w3.org/2000/svg">
<g id="Group">
<path id="Vector" d="M30.9716 17.4376C31.0512 17.2784 31.0512 17.1987 31.1308 17.0395C32.0862 15.2879 33.2009 13.1382 33.5193 12.5809C32.0862 9.55535 30.9716 7.72412 30.9716 7.72412C30.9716 7.72412 29.7773 9.39611 28.2645 12.1031C28.6626 12.8993 29.9365 15.5267 30.8919 17.2783C30.9716 17.358 30.9716 17.358 30.9716 17.4376Z" fill="#008996"/>
<path id="Vector_2" d="M30.9716 17.4376C31.6881 18.8707 32.3251 20.3039 32.8824 21.6574C34.3155 18.7911 35.3506 16.9599 35.3506 16.9599C35.3506 16.9599 35.6691 17.7561 36.1468 19.1892C35.3506 16.6414 34.3952 14.3325 33.599 12.5809C33.2805 13.1382 32.2455 15.2879 31.2104 17.0395C31.1308 17.1988 31.0512 17.2784 30.9716 17.4376Z" fill="#33A1AB"/>
<path id="Vector_3" d="M29.1404 21.6574C29.6977 20.3039 30.255 18.8707 30.9716 17.4376C30.9716 17.358 30.892 17.358 30.892 17.2784C29.9366 15.5267 28.583 12.8197 28.2646 12.1031C27.6276 13.2178 26.9907 14.5713 26.2741 16.0841C26.6722 16.721 27.7869 18.9503 29.1404 21.6574Z" fill="#33A1AB"/>
<path id="Vector_4" d="M30.9716 25.5586C31.0512 25.3994 31.1309 25.3198 31.1309 25.1605C31.6882 23.8866 32.3251 22.6924 32.8029 21.6573C32.2455 20.3038 31.6882 18.8707 30.892 17.4376C30.1754 18.8707 29.5385 20.3038 29.0608 21.6573C29.6181 22.8516 30.2551 24.1255 30.8124 25.3994C30.9716 25.479 30.9716 25.5586 30.9716 25.5586Z" fill="#4DADB6"/>
<path id="Vector_5" d="M36.3061 20.065C36.3061 20.065 36.3857 20.2243 36.4653 20.4631C36.3061 20.065 36.2265 19.5873 36.0672 19.1892C35.5895 17.7561 35.271 16.9599 35.271 16.9599C35.271 16.9599 34.236 18.7911 32.8029 21.6574C33.2009 22.6128 33.5194 23.5682 33.7583 24.444C35.271 21.737 36.3061 20.065 36.3061 20.065Z" fill="#4DADB6"/>
<path id="Vector_6" d="M30.9716 25.5587C31.3697 26.4345 31.6881 27.2307 32.0066 28.1065C32.6435 26.753 33.2009 25.4791 33.7582 24.4441C33.4397 23.4886 33.1213 22.6128 32.8028 21.6574C32.2455 22.6925 31.6881 23.8867 31.1308 25.1606C31.1308 25.3199 31.0512 25.4791 30.9716 25.5587Z" fill="#66B8C0"/>
<path id="Vector_7" d="M28.185 24.5236C28.5035 23.5682 28.8219 22.6128 29.1404 21.6573C27.8665 18.9503 26.6722 16.721 26.3538 16.084C25.9557 17.0395 25.478 18.0745 25.1595 19.1096C25.5576 19.8261 26.7519 21.8962 28.185 24.5236Z" fill="#4DADB6"/>
<path id="Vector_8" d="M29.9366 28.1862C30.2551 27.3104 30.5736 26.4346 30.9716 25.6384C30.9716 25.5587 30.892 25.5588 30.892 25.4791C30.3347 24.2052 29.6978 22.9313 29.1404 21.7371C28.7423 22.6925 28.4239 23.6479 28.185 24.6033C28.7423 25.6384 29.3793 26.9123 29.9366 28.1862Z" fill="#66B8C0"/>
<path id="Vector_9" d="M32.0067 28.1065C31.6883 27.2307 31.3698 26.4345 30.9717 25.5587C30.5736 26.4345 30.2551 27.3103 29.9366 28.1065C30.3347 28.9026 30.6532 29.6988 30.9717 30.495C31.3698 29.6988 31.6883 28.9026 32.0067 28.1065Z" fill="#7FC4CA"/>
<path id="Vector_10" d="M37.3411 23.8071C37.1022 22.6129 36.7838 21.4982 36.4653 20.4632C36.3857 20.2243 36.3061 20.0651 36.3061 20.0651C36.3061 20.0651 35.1914 21.7371 33.8379 24.4441C34.236 25.6384 34.5545 26.8326 34.7933 28.0269C36.0672 25.718 37.1022 24.2052 37.3411 23.8071Z" fill="#66B8C0"/>
<path id="Vector_11" d="M34.7933 28.0269C34.5544 26.8326 34.2359 25.6384 33.8379 24.4441C33.2805 25.5588 32.6436 26.753 32.0862 28.1065C32.4843 29.1416 32.8028 30.1766 33.1213 31.2117C33.6786 30.0174 34.2359 28.9823 34.7933 28.0269Z" fill="#7FC4CA"/>
<path id="Vector_12" d="M31.29 31.3709C31.5289 32.0078 31.7677 32.6448 32.0066 33.2817C32.3251 32.5651 32.7232 31.8486 33.0416 31.2116C32.8028 30.1766 32.4047 29.2212 32.0066 28.1065C31.6881 28.9027 31.29 29.6989 30.9716 30.5747C31.1308 30.8135 31.2104 31.132 31.29 31.3709Z" fill="#99D0D5"/>
<path id="Vector_13" d="M27.2296 28.1862C27.4684 26.9919 27.7869 25.7976 28.185 24.5237C26.8315 21.8963 25.5576 19.8262 25.1595 19.1097C24.7614 20.304 24.3633 21.4982 24.0448 22.7721C24.0448 22.8517 24.0448 22.9314 23.9652 23.011C24.4429 23.6479 25.7168 25.6384 27.2296 28.1862Z" fill="#66B8C0"/>
<path id="Vector_14" d="M28.9812 31.2913C29.2201 30.2563 29.6182 29.2212 29.9366 28.1066C29.3793 26.8327 28.7424 25.6384 28.185 24.4441C27.7869 25.718 27.4685 26.9123 27.2296 28.1066C27.7869 29.1416 28.3443 30.2563 28.9812 31.2913Z" fill="#7FC4CA"/>
<path id="Vector_15" d="M29.9366 33.3613C30.1754 32.6447 30.4143 31.9281 30.7328 31.2116C30.8124 30.9727 30.892 30.8135 30.9716 30.6542C30.6531 29.8581 30.255 29.0619 29.9366 28.2657C29.5385 29.3007 29.22 30.4154 28.9811 31.4504C29.2996 32.0078 29.6181 32.6447 29.9366 33.3613Z" fill="#99D0D5"/>
<path id="Vector_16" d="M32.0067 33.2817C31.7679 32.6448 31.6086 32.0078 31.2902 31.3709C31.2105 31.132 31.0513 30.8135 30.9717 30.4951C30.8921 30.6543 30.8124 30.8932 30.7328 31.0524C30.4144 31.769 30.1755 32.4855 29.9366 33.2021C30.2551 33.9186 30.6532 34.6352 30.9717 35.3518C31.2902 34.7945 31.6883 33.9983 32.0067 33.2817Z" fill="#B2DBDF"/>
<path id="Vector_17" d="M31.3697 53.6641C33.9971 50.7182 35.7487 47.6927 36.8634 44.7468C38.2965 40.6862 38.7742 36.4664 38.615 32.4059C38.4557 29.3008 37.978 26.4345 37.4207 23.7275C37.1818 24.1256 36.1468 25.6383 34.7933 27.9473C37.5799 41.4028 32.6436 51.4347 31.3697 53.6641Z" fill="#7FC4CA"/>
<path id="Vector_18" d="M31.29 53.664C32.5639 51.3551 37.5799 41.3232 34.7136 28.0269C34.1563 28.9823 33.599 30.0173 32.962 31.2116C36.2264 42.7563 32.4047 51.5143 31.29 53.664Z" fill="#99D0D5"/>
<path id="Vector_19" d="M31.2105 53.8233L31.2901 53.7437C32.4048 51.594 36.2265 42.836 33.0417 31.2117C32.7233 31.8486 32.3252 32.5652 32.0067 33.2818C35.6691 44.3487 32.0863 52.1513 31.2105 53.8233Z" fill="#B2DBDF"/>
<path id="Vector_20" d="M31.1308 35.9091C34.7933 44.3487 31.6881 52.3902 31.0512 53.9029C31.1308 53.8233 31.1308 53.8233 31.2104 53.7437C32.0862 52.0717 35.6691 44.2691 32.0066 33.2021C31.6881 33.9187 31.29 34.7149 30.9716 35.4314C31.0512 35.6703 31.1308 35.8295 31.1308 35.9091Z" fill="#CCE7EA"/>
<path id="Vector_21" d="M27.2296 28.1861C25.7169 25.5587 24.443 23.6478 23.9653 22.9313C23.4875 25.3198 23.1691 28.1861 23.1691 31.3708C23.1691 31.7689 23.1691 32.0874 23.2487 32.4855C23.7264 38.218 25.5576 44.9856 30.0163 52.4698C28.2647 48.8869 24.8411 39.8104 27.2296 28.1861Z" fill="#7FC4CA"/>
<path id="Vector_22" d="M29.857 51.6735C28.4238 48.0111 26.4333 40.5269 28.9015 31.3708C28.3442 30.2561 27.7072 29.2211 27.1499 28.2657C24.7614 39.8104 28.185 48.9665 29.9366 52.5493C30.1754 52.9474 30.4143 53.3455 30.7328 53.8232C30.5735 53.3455 30.255 52.629 29.857 51.6735Z" fill="#99D0D5"/>
<path id="Vector_23" d="M29.9366 33.3613C29.6182 32.6447 29.2201 32.0078 28.9016 31.3708C26.4334 40.6066 28.4239 48.0111 29.857 51.6736C28.6627 48.25 27.3092 41.7213 29.9366 33.3613Z" fill="#B2DBDF"/>
<path id="Vector_24" d="M30.892 35.6703C30.892 35.5906 30.9716 35.5906 30.9716 35.511C30.6532 34.7944 30.3347 34.0779 29.9366 33.3613C27.2296 41.7213 28.6627 48.25 29.857 51.6736C30.1754 52.5494 30.4939 53.1863 30.7328 53.6641C30.0162 51.594 27.4684 43.7914 30.892 35.6703Z" fill="#CCE7EA"/>
<path id="Vector_25" d="M31.1309 35.9091C31.0512 35.7499 31.0512 35.6703 30.9716 35.511C30.9716 35.5907 30.892 35.5907 30.892 35.6703C27.3888 43.7914 29.9366 51.594 30.7328 53.5845C30.8124 53.8233 30.892 53.9826 30.9716 54.0622C31.0512 53.9826 31.0512 53.9826 31.0512 53.9029C31.7678 52.4698 34.7933 44.4283 31.1309 35.9091Z" fill="white"/>
<path id="Vector_26" d="M45.9399 3.90246C41.4813 1.43429 36.3857 0.00115967 30.892 0.00115967C13.8536 0.00115967 0 13.8548 0 30.8932C0 47.9315 13.8536 61.7851 30.892 61.7851C47.9304 61.7851 61.784 47.9315 61.784 30.8932C61.784 25.3995 60.3509 20.2243 57.8031 15.7656L54.4591 17.7561C56.768 21.8166 58.0419 26.5141 58.0419 31.5301C58.0419 46.9761 45.5418 59.5558 30.0162 59.5558C14.5702 59.5558 1.99046 47.0557 1.99046 31.5301C1.99046 16.0841 14.4906 3.50437 30.0162 3.50437C35.1118 3.50437 39.8889 4.85787 44.0291 7.24643L41.959 11.1478L52.8667 10.8293L47.1342 1.51391L45.9399 3.90246Z" fill="white"/>
<path id="Vector_27" d="M152.947 36.546V17.756H148.329V44.0302H152.629L165.208 25.2402V44.0302H169.826V17.756H165.527L152.947 36.546Z" fill="white"/>
<path id="Vector_28" d="M92.1983 28.4249H81.5294V17.756H77.3892V44.0302H81.5294V32.4855H92.1983V44.0302H96.3384V17.756H92.1983V28.4249Z" fill="white"/>
<path id="Vector_29" d="M125.797 17.756V44.0302H130.574V21.8166H139.969V44.0302H144.667V17.756H125.797Z" fill="white"/>
<path id="Vector_30" d="M187.502 21.8166L188.139 17.756H173.648V44.0302H178.425V21.8166H187.502Z" fill="white"/>
<path id="Vector_31" d="M223.887 34.7945C223.808 34.2372 223.569 33.6002 223.33 33.0429C223.091 32.4856 222.693 31.9282 222.295 31.4505C221.897 30.9728 221.419 30.5747 220.862 30.2562C221.817 29.5397 222.454 28.6639 222.852 27.7881C223.25 26.8326 223.41 25.7976 223.41 24.7625C223.41 23.8867 223.25 23.0109 223.012 22.1351C222.693 21.2593 222.215 20.4632 221.658 19.7466C221.021 19.03 220.225 18.4727 219.19 17.995C218.234 17.5173 217.04 17.358 215.607 17.358C214.174 17.358 212.98 17.5969 211.945 17.995C210.91 18.3931 210.113 18.9504 209.476 19.667C208.839 20.3835 208.362 21.1797 208.043 22.0555C207.725 22.9313 207.566 23.8071 207.566 24.7625V26.0364H211.865V25.2403C211.865 24.6033 211.945 24.046 212.024 23.5683C212.104 23.0906 212.343 22.6925 212.582 22.374C212.82 22.0555 213.218 21.8167 213.696 21.6574C214.174 21.4982 214.811 21.4186 215.607 21.4186C216.164 21.4186 216.722 21.4982 217.12 21.7371C217.518 21.9759 217.916 22.2148 218.155 22.5332C218.394 22.8517 218.633 23.1702 218.792 23.6479C218.951 24.046 218.951 24.5237 218.951 25.0014C218.951 25.4791 218.871 26.0365 218.712 26.5142C218.553 26.9919 218.394 27.39 218.075 27.7084C217.757 28.0269 217.438 28.2658 216.961 28.5046C216.483 28.7435 215.926 28.8231 215.209 28.8231H212.343V32.804H215.129C215.926 32.804 216.562 32.8836 217.12 33.1225C217.677 33.3614 218.155 33.6002 218.473 33.9983C218.792 34.3964 219.11 34.7945 219.269 35.2722C219.429 35.7499 219.508 36.3073 219.508 36.9442C219.508 38.0589 219.19 39.0143 218.473 39.7309C217.757 40.4474 216.722 40.8455 215.209 40.8455C214.89 40.8455 214.572 40.7659 214.254 40.6863C213.935 40.6066 213.537 40.4474 213.218 40.2882C212.9 40.1289 212.582 39.9697 212.263 39.8105C212.024 39.6512 211.785 39.4124 211.546 39.2531C211.069 38.6958 210.83 38.2181 210.671 37.6608C210.591 37.1034 210.511 36.4665 210.511 35.7499V35.0334L206.212 34.5556V35.4315C206.212 36.4665 206.371 37.5811 206.61 38.5366C206.849 39.5716 207.406 40.6066 208.282 41.5621C208.68 41.9602 209.078 42.4379 209.636 42.7563C210.113 43.1544 210.75 43.4729 211.308 43.7118C211.945 44.0303 212.582 44.1895 213.218 44.4283C213.935 44.5876 214.652 44.6672 215.289 44.6672C216.801 44.6672 218.075 44.4283 219.19 43.9506C220.305 43.4729 221.18 42.836 221.897 42.1194C222.613 41.3232 223.171 40.4474 223.489 39.492C223.808 38.5366 223.967 37.5812 223.967 36.6257C224.047 35.9092 223.967 35.3518 223.887 34.7945Z" fill="white"/>
<path id="Vector_32" d="M193.155 17.756L183.202 44.0302H187.581L190.686 35.9887H199.365L202.39 44.0302H206.769L196.817 17.756H193.155ZM192.199 31.9281L194.986 24.5236L197.772 31.9281H192.199Z" fill="white"/>
<path id="Vector_33" d="M104.778 36.546V17.756H100.16V44.0302H104.46L117.039 25.2402V44.0302H121.737V17.756H117.358L104.778 36.546Z" fill="white"/>
</g>
</svg>
