<svg width="62" height="62" viewBox="0 0 62 62" fill="none" xmlns="http://www.w3.org/2000/svg">
<g id="Group 431">
<g id="Group 147">
<g id="Group 144">
<g id="Group 143">
<g id="Group">
<g id="Exclude">
<mask id="path-1-outside-1_146_154" maskUnits="userSpaceOnUse" x="0" y="0" width="38" height="62" fill="black">
<rect fill="white" width="38" height="62"/>
<path fill-rule="evenodd" clip-rule="evenodd" d="M31.6037 60C33.8809 60 35.7027 58.3688 35.7027 56.375V5.625C35.7027 3.63125 33.8809 2 31.6037 2H5.9168C3.73068 2 2 3.63125 2 5.625V56.375C2 58.3688 3.73068 60 5.9168 60H31.6037ZM5.91892 6.70272H31.7838V49.027H5.91892V6.70272Z"/>
</mask>
<path fill-rule="evenodd" clip-rule="evenodd" d="M31.6037 60C33.8809 60 35.7027 58.3688 35.7027 56.375V5.625C35.7027 3.63125 33.8809 2 31.6037 2H5.9168C3.73068 2 2 3.63125 2 5.625V56.375C2 58.3688 3.73068 60 5.9168 60H31.6037ZM5.91892 6.70272H31.7838V49.027H5.91892V6.70272Z" fill="white"/>
<path d="M31.7838 6.70272H33.7838V4.70272H31.7838V6.70272ZM5.91892 6.70272V4.70272H3.91892V6.70272H5.91892ZM31.7838 49.027V51.027H33.7838V49.027H31.7838ZM5.91892 49.027H3.91892V51.027H5.91892V49.027ZM33.7027 56.375C33.7027 57.047 33.0068 58 31.6037 58V62C34.7551 62 37.7027 59.6905 37.7027 56.375H33.7027ZM33.7027 5.625V56.375H37.7027V5.625H33.7027ZM31.6037 4C33.0068 4 33.7027 4.95298 33.7027 5.625H37.7027C37.7027 2.30952 34.755 0 31.6037 0V4ZM5.9168 4H31.6037V0H5.9168V4ZM4 5.625C4 4.86862 4.6976 4 5.9168 4V0C2.76376 0 0 2.39388 0 5.625H4ZM4 56.375V5.625H0V56.375H4ZM5.9168 58C4.6976 58 4 57.1314 4 56.375H0C0 59.6061 2.76376 62 5.9168 62V58ZM31.6037 58H5.9168V62H31.6037V58ZM31.7838 4.70272H5.91892V8.70272H31.7838V4.70272ZM33.7838 49.027V6.70272H29.7838V49.027H33.7838ZM5.91892 51.027H31.7838V47.027H5.91892V51.027ZM3.91892 6.70272V49.027H7.91892V6.70272H3.91892Z" fill="#008C95" mask="url(#path-1-outside-1_146_154)"/>
</g>
<path id="Vector" d="M19.2433 56.2973C21.0942 56.2973 22.5946 54.7969 22.5946 52.946C22.5946 51.0951 21.0942 49.5946 19.2433 49.5946C17.3924 49.5946 15.8919 51.0951 15.8919 52.946C15.8919 54.7969 17.3924 56.2973 19.2433 56.2973Z" fill="#008C95" stroke="#008C95" stroke-width="2"/>
</g>
</g>
</g>
<rect id="Rectangle 84" x="5.91895" y="49.027" width="42.3243" height="25.8649" transform="rotate(-90 5.91895 49.027)" fill="#008C95"/>
</g>
<g id="Group 148">
<g id="Group 144_2">
<g id="Group 143_2">
<g id="Group_2">
<g id="Exclude_2">
<mask id="path-5-outside-2_146_154" maskUnits="userSpaceOnUse" x="-1.57361e-06" y="24.2973" width="62" height="38" fill="black">
<rect fill="white" x="-1.57361e-06" y="24.2973" width="62" height="38"/>
<path fill-rule="evenodd" clip-rule="evenodd" d="M1.99999 55.901C1.99999 58.1782 3.63125 60 5.625 60L56.375 60C58.3687 60 60 58.1782 60 55.901L60 30.2141C60 28.028 58.3687 26.2973 56.375 26.2973L5.625 26.2973C3.63125 26.2973 2 28.028 2 30.2141L1.99999 55.901ZM55.2973 30.2163L55.2973 56.0811L12.973 56.0811L12.973 30.2163L55.2973 30.2163Z"/>
</mask>
<path fill-rule="evenodd" clip-rule="evenodd" d="M1.99999 55.901C1.99999 58.1782 3.63125 60 5.625 60L56.375 60C58.3687 60 60 58.1782 60 55.901L60 30.2141C60 28.028 58.3687 26.2973 56.375 26.2973L5.625 26.2973C3.63125 26.2973 2 28.028 2 30.2141L1.99999 55.901ZM55.2973 30.2163L55.2973 56.0811L12.973 56.0811L12.973 30.2163L55.2973 30.2163Z" fill="white"/>
<path d="M5.625 60L5.625 62L5.625 60ZM1.99999 55.901L3.99999 55.901L1.99999 55.901ZM56.375 60L56.375 58L56.375 60ZM60 55.901L62 55.901L60 55.901ZM60 30.2141L58 30.2141L60 30.2141ZM56.375 26.2973L56.375 28.2973L56.375 26.2973ZM5.625 26.2973L5.625 24.2973L5.625 26.2973ZM2 30.2141L-3.98591e-06 30.2141L2 30.2141ZM55.2973 56.0811L55.2973 58.0811L57.2973 58.0811L57.2973 56.0811L55.2973 56.0811ZM55.2973 30.2163L57.2973 30.2163L57.2973 28.2163L55.2973 28.2163L55.2973 30.2163ZM12.973 56.0811L10.973 56.0811L10.973 58.0811L12.973 58.0811L12.973 56.0811ZM12.973 30.2163L12.973 28.2163L10.973 28.2163L10.973 30.2163L12.973 30.2163ZM5.625 58C4.95298 58 3.99999 57.3041 3.99999 55.901L-5.10872e-06 55.901C-5.24647e-06 59.0524 2.30952 62 5.625 62L5.625 58ZM56.375 58L5.625 58L5.625 62L56.375 62L56.375 58ZM58 55.901C58 57.3041 57.047 58 56.375 58L56.375 62C59.6905 62 62 59.0523 62 55.901L58 55.901ZM58 30.2141L58 55.901L62 55.901L62 30.2141L58 30.2141ZM56.375 28.2973C57.1314 28.2973 58 28.9949 58 30.2141L62 30.2141C62 27.0611 59.6061 24.2973 56.375 24.2973L56.375 28.2973ZM5.625 28.2973L56.375 28.2973L56.375 24.2973L5.625 24.2973L5.625 28.2973ZM4 30.2141C4 28.9949 4.86862 28.2973 5.625 28.2973L5.625 24.2973C2.39388 24.2973 -3.84808e-06 27.0611 -3.98591e-06 30.2141L4 30.2141ZM3.99999 55.901L4 30.2141L-3.98591e-06 30.2141L-5.10872e-06 55.901L3.99999 55.901ZM57.2973 56.0811L57.2973 30.2163L53.2973 30.2163L53.2973 56.0811L57.2973 56.0811ZM12.973 58.0811L55.2973 58.0811L55.2973 54.0811L12.973 54.0811L12.973 58.0811ZM10.973 30.2163L10.973 56.0811L14.973 56.0811L14.973 30.2163L10.973 30.2163ZM55.2973 28.2163L12.973 28.2163L12.973 32.2163L55.2973 32.2163L55.2973 28.2163Z" fill="#008C95" mask="url(#path-5-outside-2_146_154)"/>
</g>
<path id="Vector_2" d="M6.70275 43.5406C6.70275 44.8392 7.75549 45.8919 9.05411 45.8919C10.3527 45.8919 11.4055 44.8392 11.4055 43.5406C11.4055 42.242 10.3527 41.1892 9.05411 41.1892C7.75549 41.1892 6.70275 42.242 6.70275 43.5406Z" fill="#008C95"/>
</g>
</g>
</g>
</g>
<rect id="Rectangle 83" x="12.973" y="30.2162" width="42.3243" height="25.8649" fill="#008C95"/>
<path id="Vector 5" d="M39.6216 5.06079C38.9313 5.06079 38.3716 5.62044 38.3716 6.31079C38.3716 7.00115 38.9313 7.56079 39.6216 7.56079V5.06079ZM48.9269 21.6947C49.4151 22.1828 50.2066 22.1828 50.6947 21.6947L58.6497 13.7397C59.1378 13.2516 59.1378 12.4601 58.6497 11.972C58.1615 11.4838 57.3701 11.4838 56.8819 11.972L49.8108 19.043L42.7398 11.972C42.2516 11.4838 41.4602 11.4838 40.972 11.972C40.4838 12.4601 40.4838 13.2516 40.972 13.7397L48.9269 21.6947ZM48.5608 16.5V20.8108H51.0608V16.5H48.5608ZM39.6216 7.56079C44.5586 7.56079 48.5608 11.563 48.5608 16.5H51.0608C51.0608 10.1823 45.9393 5.06079 39.6216 5.06079V7.56079Z" fill="white"/>
</g>
</svg>
