<svg width="15" height="13" viewBox="0 0 15 13" fill="none" xmlns="http://www.w3.org/2000/svg">
<path d="M4.67095 12.3473H3.29974V3.81523C3.29974 3.05344 3.29974 2.44401 3.29974 1.83458C3.14738 1.98694 2.99502 2.1393 2.84266 2.1393C2.6903 2.29165 2.08087 2.74873 0.862008 3.66287L0.10022 2.74873L3.29974 0.311005H4.5186V12.3473H4.67095Z" fill="white"/>
<path d="M14.4217 12.3473H13.0505V3.81529C13.0505 3.0535 13.0505 2.44407 13.0505 1.83464C12.8981 1.987 12.7457 2.13936 12.5934 2.13936C12.441 2.29171 11.8316 2.74879 10.6127 3.66293L9.85095 2.74879L13.0505 0.311066H14.2693V12.3473H14.4217Z" fill="white"/>
</svg>
