<svg width="9" height="14" viewBox="0 0 9 14" fill="none" xmlns="http://www.w3.org/2000/svg">
<path d="M8.69532 3.41758C8.69532 4.17937 8.3906 4.7888 7.93353 5.39823C7.47645 5.8553 6.86703 6.31238 5.95288 6.46473C7.01939 6.61709 7.78118 6.9218 8.23825 7.37888C8.69532 7.83595 9.00004 8.59774 9.00004 9.35953C9.00004 10.5784 8.54296 11.4925 7.78117 12.102C6.86702 12.7114 5.64816 13.0161 4.12458 13.0161C3.51515 13.0161 2.75337 13.0161 2.29629 12.8638C1.68686 12.7114 1.22979 12.559 0.620361 12.4067V11.0355C1.22979 11.3402 1.83922 11.4925 2.44865 11.6449C3.05808 11.7973 3.66752 11.7973 4.27695 11.7973C6.56232 11.7973 7.62882 10.8831 7.62882 9.20717C7.62882 7.68359 6.40995 6.9218 3.97223 6.9218H2.75337V5.70294H3.97223C5.03873 5.70294 5.80052 5.55058 6.40995 5.09351C7.01938 4.63644 7.3241 4.027 7.3241 3.26522C7.3241 2.65579 7.17174 2.19872 6.71467 1.894C6.2576 1.58928 5.64816 1.43692 4.88637 1.43692C4.27694 1.43692 3.81987 1.43693 3.36279 1.58928C2.90572 1.74164 2.29629 2.04636 1.68686 2.35107L0.772717 1.58928C1.22979 1.13221 1.83922 0.827491 2.60101 0.675133C3.36279 0.370418 3.97223 0.370422 4.73402 0.370422C5.95288 0.370422 7.01938 0.675138 7.62882 1.13221C8.3906 1.74164 8.69532 2.35107 8.69532 3.41758Z" fill="white"/>
</svg>
