<svg width="10" height="13" viewBox="0 0 10 13" fill="none" xmlns="http://www.w3.org/2000/svg">
<path d="M0.962158 7.51285C0.962158 5.07513 1.41923 3.24684 2.48574 2.02798C3.39988 0.809114 4.92346 0.199677 6.90411 0.199677C7.51354 0.199677 8.12297 0.199686 8.42768 0.352044V1.5709C7.97061 1.41854 7.51354 1.41854 6.90411 1.41854C5.53289 1.41854 4.46638 1.87562 3.7046 2.63741C2.94281 3.3992 2.63809 4.77042 2.48574 6.59871H2.63809C3.24752 5.68456 4.31403 5.07513 5.68525 5.07513C6.90411 5.07513 7.81825 5.37984 8.42768 6.14163C9.03711 6.75106 9.49419 7.66521 9.49419 8.88408C9.49419 10.1029 9.18947 11.1694 8.42768 11.9312C7.66589 12.693 6.75175 12.9977 5.53289 12.9977C4.16167 12.9977 3.09516 12.5407 2.33337 11.4742C1.26687 10.7124 0.962158 9.34115 0.962158 7.51285ZM5.22817 11.9312C5.98996 11.9312 6.75175 11.6265 7.20882 11.1694C7.6659 10.7124 7.97061 9.95058 7.97061 9.03643C7.97061 8.27464 7.81825 7.51285 7.36118 7.05578C6.90411 6.5987 6.29468 6.29399 5.38053 6.29399C4.92346 6.29399 4.31402 6.44635 3.85695 6.59871C3.39988 6.75107 3.09516 7.05578 2.79045 7.51285C2.48573 7.81757 2.33337 8.27465 2.33337 8.73172C2.33337 9.34115 2.48573 9.79822 2.63809 10.4077C2.94281 10.8647 3.24752 11.3218 3.7046 11.6265C4.16167 11.7789 4.7711 11.9312 5.22817 11.9312Z" fill="white"/>
</svg>
