<svg width="9" height="13" viewBox="0 0 9 13" fill="none" xmlns="http://www.w3.org/2000/svg">
<path d="M5.03665 0.165985C6.10315 0.165985 7.0173 0.470701 7.62673 0.927774C8.23616 1.38485 8.54088 2.14663 8.54088 3.06077C8.54088 3.6702 8.38852 4.12728 7.93145 4.58435C7.62673 5.04142 7.0173 5.4985 6.10315 5.95557C7.16966 6.41265 7.77909 6.86972 8.23616 7.3268C8.69324 7.78387 8.84559 8.39329 8.84559 9.15508C8.84559 10.0692 8.54088 10.9834 7.77909 11.4404C7.0173 12.0499 6.10315 12.3546 4.88429 12.3546C3.51307 12.3546 2.59892 12.0499 1.83714 11.5928C1.07535 10.9834 0.77063 10.2216 0.77063 9.30745C0.77063 7.93623 1.68478 6.86972 3.36071 6.10793C2.59892 5.65086 1.98949 5.19379 1.68478 4.73672C1.38006 4.27964 1.2277 3.6702 1.2277 3.06077C1.2277 2.14663 1.53242 1.5372 2.14185 1.08013C3.056 0.318341 3.97014 0.165985 5.03665 0.165985ZM2.29421 9.15508C2.29421 9.76451 2.59892 10.3739 3.056 10.6787C3.51307 10.9834 4.1225 11.2881 5.03665 11.2881C5.79844 11.2881 6.56023 11.1357 7.0173 10.6787C7.47437 10.3739 7.77909 9.76451 7.77909 9.15508C7.77909 8.69801 7.62673 8.08859 7.16966 7.78387C6.71258 7.3268 5.9508 7.02208 4.88429 6.56501C4.1225 6.86972 3.51307 7.3268 3.056 7.78387C2.59892 8.08859 2.29421 8.54565 2.29421 9.15508ZM5.03665 1.23248C4.27486 1.23248 3.81779 1.38485 3.36071 1.68956C2.90364 1.99428 2.75128 2.45134 2.75128 3.06077C2.75128 3.51785 2.90364 3.97492 3.20835 4.27964C3.51307 4.58436 4.1225 5.04142 5.03665 5.34614C5.79844 5.04142 6.40787 4.73671 6.71258 4.27964C7.0173 3.97492 7.16966 3.51785 7.16966 2.90842C7.16966 2.29899 7.0173 1.99427 6.56023 1.5372C6.25551 1.38484 5.64608 1.23248 5.03665 1.23248Z" fill="white"/>
</svg>
