<svg width="9" height="14" viewBox="0 0 9 14" fill="none" xmlns="http://www.w3.org/2000/svg">
<path d="M8.37968 5.85517C8.37968 10.7306 6.39902 13.1683 2.59008 13.1683C1.98065 13.1683 1.37122 13.1683 0.914144 13.016V11.7971C1.37122 11.9495 1.98065 11.9495 2.59008 11.9495C3.9613 11.9495 5.0278 11.4924 5.78959 10.7306C6.55138 9.81647 6.8561 8.59761 7.00845 6.92167H6.8561C6.55138 7.37874 6.09431 7.68346 5.63724 7.98818C5.18016 8.29289 4.57073 8.29289 3.80894 8.29289C2.74244 8.29289 1.82829 7.98817 1.0665 7.37874C0.457072 6.76931 0 5.85517 0 4.6363C0 3.26508 0.304714 2.35094 1.0665 1.58915C1.82829 0.827361 2.74244 0.522644 3.9613 0.522644C4.87545 0.522644 5.63723 0.675004 6.24667 1.13208C6.8561 1.58915 7.46553 2.19858 7.77024 2.96037C8.07496 3.72215 8.37968 4.6363 8.37968 5.85517ZM3.9613 1.43679C3.19951 1.43679 2.43772 1.7415 1.98065 2.19858C1.52358 2.65565 1.21886 3.41744 1.21886 4.33159C1.21886 5.09338 1.37122 5.85517 1.82829 6.31224C2.28536 6.76931 2.8948 7.07403 3.80894 7.07403C4.41838 7.07403 4.87545 6.92167 5.33252 6.76931C5.78959 6.61695 6.09431 6.31224 6.39902 5.85517C6.70374 5.55045 6.8561 5.09338 6.8561 4.78866C6.8561 4.17923 6.70374 3.5698 6.55138 3.11273C6.24667 2.65565 5.94195 2.19858 5.48488 1.89387C5.0278 1.58915 4.57073 1.43679 3.9613 1.43679Z" fill="white"/>
</svg>
