<svg width="54" height="13" viewBox="0 0 54 13" fill="none" xmlns="http://www.w3.org/2000/svg">
<path fill-rule="evenodd" clip-rule="evenodd" d="M47.076 12.7114C50.4279 12.7114 53.1703 9.96896 53.1703 6.61709C53.1703 3.26522 50.4279 0.522781 47.076 0.522781C44.2204 0.522781 41.8072 2.51324 41.1552 5.17524L3.48845 5.24264C3.14845 5.26419 2.54507 5.43898 2.01831 5.74547L1.49155 6.05195L0.591279 6.9283C0.459591 7.00492 0.404523 7.21323 0.349454 7.42154C0.294388 7.62986 0.447629 7.89323 0.524251 8.02492L1.40059 8.92519C1.83876 9.37533 2.82525 9.85898 3.50525 9.81588L41.8244 9.69962C42.887 11.4983 44.8467 12.7114 47.076 12.7114Z" fill="white"/>
</svg>
