<svg width="191" height="191" viewBox="0 0 191 191" fill="none" xmlns="http://www.w3.org/2000/svg">
<path d="M95.746 53.9031C95.9921 53.4109 95.9921 53.1647 96.2383 52.6725C99.1919 47.2575 102.638 40.6119 103.622 38.8889C99.1919 29.5359 95.746 23.8748 95.746 23.8748C95.746 23.8748 92.054 29.0436 87.3775 37.4121C88.6081 39.8735 92.5463 47.9959 95.4999 53.4108C95.746 53.657 95.746 53.657 95.746 53.9031Z" fill="#008996"/>
<path d="M95.746 53.9034C97.9612 58.3338 99.9303 62.7641 101.653 66.9484C106.084 58.0876 109.283 52.4265 109.283 52.4265C109.283 52.4265 110.268 54.8878 111.745 59.3183C109.283 51.442 106.33 44.3041 103.868 38.8892C102.884 40.6121 99.6842 47.2577 96.4844 52.6727C96.2383 53.1649 95.9921 53.4111 95.746 53.9034Z" fill="#33A1AB"/>
<path d="M90.0851 66.9484C91.808 62.7642 93.531 58.3338 95.7462 53.9034C95.7462 53.6572 95.5 53.6572 95.5 53.4111C92.5464 47.9961 88.3622 39.6276 87.3776 37.4124C85.4085 40.8582 83.4395 45.0425 81.2243 49.7191C82.4549 51.6881 85.9008 58.5799 90.0851 66.9484Z" fill="#33A1AB"/>
<path d="M95.7462 79.0088C95.9924 78.5166 96.2385 78.2704 96.2385 77.7782C97.9614 73.84 99.9305 70.148 101.407 66.9483C99.6844 62.764 97.9614 58.3336 95.5001 53.9032C93.2849 58.3336 91.3158 62.764 89.839 66.9483C91.562 70.6403 93.531 74.5785 95.254 78.5166C95.7462 78.7627 95.7462 79.0088 95.7462 79.0088Z" fill="#4DADB6"/>
<path d="M112.237 62.0256C112.237 62.0256 112.483 62.5179 112.729 63.2563C112.237 62.0256 111.991 60.5488 111.499 59.3181C110.022 54.8877 109.037 52.4264 109.037 52.4264C109.037 52.4264 105.838 58.0875 101.407 66.9483C102.638 69.9019 103.622 72.8555 104.361 75.563C109.037 67.1944 112.237 62.0256 112.237 62.0256Z" fill="#4DADB6"/>
<path d="M95.746 79.0089C96.9767 81.7164 97.9612 84.1778 98.9458 86.8852C100.915 82.701 102.638 78.7628 104.361 75.5631C103.376 72.6094 102.392 69.902 101.407 66.9484C99.6842 70.1481 97.9612 73.8401 96.2383 77.7782C96.2383 78.2705 95.9921 78.7628 95.746 79.0089Z" fill="#66B8C0"/>
<path d="M87.1314 75.8091C88.116 72.8555 89.1005 69.9019 90.0851 66.9483C86.1469 58.5797 82.4549 51.6879 81.4704 49.7189C80.2397 52.6725 78.7629 55.8723 77.7784 59.072C79.009 61.2872 82.701 67.6867 87.1314 75.8091Z" fill="#4DADB6"/>
<path d="M92.5465 87.1315C93.531 84.424 94.5155 81.7165 95.7462 79.2551C95.7462 79.009 95.5001 79.009 95.5001 78.7629C93.7771 74.8248 91.8081 70.8866 90.0851 67.1946C88.8544 70.1482 87.8699 73.1018 87.1315 76.0554C88.8544 79.2552 90.8235 83.1933 92.5465 87.1315Z" fill="#66B8C0"/>
<path d="M98.946 86.8852C97.9615 84.1778 96.977 81.7164 95.7463 79.0089C94.5156 81.7164 93.5311 84.4239 92.5466 86.8852C93.7772 89.3466 94.7618 91.8079 95.7463 94.2693C96.977 91.8079 97.9615 89.3466 98.946 86.8852Z" fill="#7FC4CA"/>
<path d="M115.437 73.5941C114.698 69.9021 113.714 66.4562 112.729 63.2564C112.483 62.518 112.237 62.0258 112.237 62.0258C112.237 62.0258 108.791 67.1946 104.607 75.5631C105.838 79.2551 106.822 82.9472 107.561 86.6392C111.499 79.5013 114.698 74.8248 115.437 73.5941Z" fill="#66B8C0"/>
<path d="M107.56 86.6391C106.822 82.9471 105.838 79.2551 104.607 75.5631C102.884 79.009 100.915 82.701 99.1919 86.8853C100.423 90.085 101.407 93.2848 102.392 96.4845C104.115 92.7925 105.838 89.5927 107.56 86.6391Z" fill="#7FC4CA"/>
<path d="M96.7305 96.9768C97.469 98.9458 98.2074 100.915 98.9458 102.884C99.9303 100.669 101.161 98.4535 102.146 96.4845C101.407 93.2847 100.176 90.3311 98.9458 86.8853C97.9612 89.3466 96.7305 91.8079 95.746 94.5154C96.2383 95.2538 96.4844 96.2384 96.7305 96.9768Z" fill="#99D0D5"/>
<path d="M84.178 87.1317C84.9164 83.4396 85.9009 79.7476 87.1316 75.8095C82.9473 67.687 79.0092 61.2876 77.7785 59.0724C76.5478 62.7644 75.3172 66.4563 74.3326 70.3945C74.3326 70.6406 74.3326 70.8868 74.0865 71.1329C75.5633 73.102 79.5014 79.2554 84.178 87.1317Z" fill="#66B8C0"/>
<path d="M89.5929 96.7307C90.3313 93.5309 91.562 90.3312 92.5466 86.8853C90.8236 82.9471 88.8545 79.2551 87.1316 75.5631C85.9009 79.5013 84.9164 83.1933 84.178 86.8853C85.9009 90.085 87.6239 93.5309 89.5929 96.7307Z" fill="#7FC4CA"/>
<path d="M92.5464 103.13C93.2848 100.915 94.0233 98.6994 95.0078 96.4842C95.2539 95.7458 95.5 95.2536 95.7462 94.7613C94.7616 92.3 93.531 89.8387 92.5464 87.3773C91.3158 90.5771 90.3312 94.0229 89.5928 97.2227C90.5774 98.9456 91.5619 100.915 92.5464 103.13Z" fill="#99D0D5"/>
<path d="M98.946 102.884C98.2076 100.915 97.7154 98.9458 96.7308 96.9768C96.4847 96.2384 95.9924 95.2538 95.7463 94.2693C95.5002 94.7616 95.254 95.5 95.0079 95.9923C94.0234 98.2075 93.285 100.423 92.5466 102.638C93.5311 104.853 94.7618 107.068 95.7463 109.283C96.7308 107.561 97.9615 105.099 98.946 102.884Z" fill="#B2DBDF"/>
<path d="M96.9768 165.894C105.099 156.787 110.514 147.434 113.96 138.327C118.39 125.774 119.867 112.729 119.375 100.176C118.883 90.5773 117.406 81.7165 115.683 73.3479C114.945 74.5786 111.745 79.2551 107.561 86.393C116.175 127.99 100.915 159.003 96.9768 165.894Z" fill="#7FC4CA"/>
<path d="M96.7306 165.894C100.669 158.756 116.175 127.743 107.314 86.6389C105.591 89.5925 103.868 92.7923 101.899 96.4843C111.991 132.174 100.176 159.248 96.7306 165.894Z" fill="#99D0D5"/>
<path d="M96.4846 166.386L96.7308 166.14C100.177 159.495 111.991 132.42 102.146 96.4844C101.161 98.4534 99.9305 100.669 98.946 102.884C110.268 137.097 99.1921 161.218 96.4846 166.386Z" fill="#B2DBDF"/>
<path d="M96.2383 111.006C107.56 137.097 97.9612 161.956 95.9922 166.633C96.2383 166.387 96.2383 166.387 96.4844 166.141C99.1919 160.972 110.268 136.851 98.9458 102.638C97.9612 104.853 96.7305 107.315 95.746 109.53C95.9921 110.268 96.2383 110.76 96.2383 111.006Z" fill="#CCE7EA"/>
<path d="M84.178 87.1316C79.5014 79.0092 75.5633 73.1019 74.0865 70.8867C72.6097 78.2707 71.6252 87.1316 71.6252 96.9769C71.6252 98.2076 71.6252 99.1921 71.8713 100.423C73.3481 118.144 79.0092 139.066 92.7927 162.202C87.3777 151.126 76.794 123.067 84.178 87.1316Z" fill="#7FC4CA"/>
<path d="M92.3003 159.741C87.8699 148.419 81.7165 125.282 89.3466 96.9765C87.6237 93.5307 85.6546 90.3309 83.9317 87.3773C76.5477 123.067 87.1314 151.372 92.5464 162.448C93.2848 163.679 94.0232 164.909 95.0077 166.386C94.5155 164.909 93.5309 162.694 92.3003 159.741Z" fill="#99D0D5"/>
<path d="M92.5465 103.13C91.562 100.915 90.3313 98.946 89.3468 96.9769C81.7166 125.528 87.87 148.419 92.3004 159.741C88.6084 149.157 84.4241 128.974 92.5465 103.13Z" fill="#B2DBDF"/>
<path d="M95.5001 110.268C95.5001 110.022 95.7462 110.022 95.7462 109.776C94.7617 107.561 93.7771 105.345 92.5465 103.13C84.1779 128.974 88.6083 149.157 92.3003 159.741C93.2849 162.449 94.2694 164.418 95.0078 165.894C92.7926 159.495 84.9163 135.374 95.5001 110.268Z" fill="#CCE7EA"/>
<path d="M96.2385 111.007C95.9924 110.514 95.9924 110.268 95.7462 109.776C95.7462 110.022 95.5001 110.022 95.5001 110.268C84.6702 135.374 92.5465 159.495 95.0078 165.648C95.254 166.387 95.5001 166.879 95.7462 167.125C95.9924 166.879 95.9924 166.879 95.9924 166.633C98.2076 162.202 107.561 137.343 96.2385 111.007Z" fill="white"/>
<path d="M142.019 12.0606C128.236 4.4304 112.483 0 95.5 0C42.8273 0 0 42.8273 0 95.5C0 148.173 42.8273 191 95.5 191C148.173 191 191 148.173 191 95.5C191 78.5167 186.57 62.518 178.693 48.7345L168.356 54.8879C175.494 67.4407 179.432 81.9626 179.432 97.469C179.432 145.219 140.789 184.108 92.7925 184.108C45.0425 184.108 6.15335 145.465 6.15335 97.469C6.15335 49.719 44.7964 10.8299 92.7925 10.8299C108.545 10.8299 123.313 15.0141 136.112 22.3981L129.713 34.4588L163.433 33.4742L145.711 4.67653L142.019 12.0606Z" fill="white"/>
</svg>
