<svg width="250" height="250" viewBox="0 0 250 250" fill="none" xmlns="http://www.w3.org/2000/svg">
<g clip-path="url(#clip0_251_23522)">
<rect width="250" height="250" rx="40" fill="#008C95"/>
<path d="M39.1196 171.753C23.2433 136.924 38.608 95.8181 73.4377 79.9418L227.694 9.62763C262.523 -6.24875 303.629 9.11599 319.505 43.9457L355.114 122.064C370.99 156.894 355.625 198 320.796 213.876L166.54 284.19C131.71 300.066 90.6047 284.702 74.7283 249.872L39.1196 171.753Z" fill="white"/>
<path d="M111.467 183.934L117.273 178.063L118.129 178.859C119.68 180.257 121.457 181.196 123.46 181.673C125.482 182.084 127.747 181.604 130.255 180.233C131.812 179.381 132.977 178.379 133.751 177.226C134.568 176.049 135.064 174.851 135.24 173.631C135.435 172.345 135.389 171.078 135.1 169.832C134.788 168.542 134.336 167.356 133.745 166.275C133.154 165.194 132.412 164.196 131.518 163.28C130.6 162.322 129.547 161.577 128.359 161.047C127.171 160.518 125.861 160.279 124.429 160.332C123.04 160.361 121.568 160.801 120.011 161.652C119.535 161.912 119.127 162.192 118.785 162.491C118.462 162.724 118.152 162.978 117.853 163.253C117.535 163.596 117.229 163.96 116.934 164.346C116.616 164.688 116.288 165.064 115.95 165.474L115.095 166.531L108.678 162.962L116.232 141.643L98.5887 151.29L94.971 144.674L122.927 129.387L126.191 135.355L120.121 153.84C120.231 153.836 120.329 153.81 120.416 153.763C120.502 153.716 120.601 153.69 120.711 153.686C123.326 152.818 125.74 152.509 127.955 152.758C130.146 152.964 132.119 153.543 133.875 154.493C135.65 155.376 137.169 156.511 138.433 157.898C139.74 159.262 140.772 160.635 141.529 162.019C142.38 163.576 143.033 165.438 143.488 167.604C143.942 169.771 143.959 172.009 143.536 174.319C143.157 176.604 142.225 178.855 140.741 181.071C139.256 183.287 137 185.223 133.973 186.878C131.595 188.179 129.342 188.989 127.214 189.31C125.087 189.631 123.09 189.627 121.226 189.299C119.404 188.947 117.728 188.347 116.197 187.498C114.686 186.584 113.326 185.586 112.117 184.505L111.467 183.934Z" fill="#008C95"/>
<path d="M139.378 140.446C138.526 138.889 137.895 137.015 137.484 134.825C137.072 132.634 137.09 130.406 137.536 128.14C138.001 125.807 138.988 123.554 140.496 121.381C142.024 119.142 144.258 117.218 147.199 115.61C150.139 114.002 152.943 113.171 155.61 113.117C158.296 112.996 160.725 113.381 162.898 114.272C165.089 115.096 166.996 116.272 168.619 117.8C170.284 119.305 171.542 120.836 172.393 122.392L182.005 139.971C183.259 142.262 183.985 144.618 184.184 147.037C184.383 149.456 184.116 151.792 183.383 154.047C182.669 156.235 181.521 158.295 179.938 160.228C178.374 162.094 176.447 163.654 174.155 164.907C171.214 166.515 168.401 167.379 165.714 167.5C163.048 167.554 160.606 167.147 158.391 166.28C156.219 165.39 154.322 164.18 152.7 162.652C151.077 161.123 149.841 159.581 148.989 158.024L139.378 140.446ZM170.572 158.355C171.999 157.575 173.1 156.608 173.873 155.455C174.667 154.235 175.194 152.991 175.457 151.725C175.739 150.391 175.79 149.099 175.612 147.848C175.41 146.554 175.037 145.41 174.493 144.415L164.598 126.318C164.03 125.28 163.268 124.349 162.311 123.524C161.374 122.632 160.28 121.966 159.029 121.527C157.821 121.064 156.501 120.859 155.069 120.912C153.681 120.941 152.251 121.357 150.781 122.161C149.354 122.941 148.232 123.92 147.415 125.097C146.598 126.274 146.059 127.496 145.797 128.763C145.534 130.03 145.504 131.31 145.706 132.604C145.908 133.898 146.281 135.042 146.825 136.036L156.72 154.134C157.264 155.128 158.026 156.06 159.007 156.928C159.963 157.753 161.058 158.418 162.289 158.925C163.541 159.364 164.872 159.591 166.284 159.605C167.716 159.552 169.145 159.136 170.572 158.355Z" fill="#008C95"/>
<path d="M179.441 118.539C178.59 116.982 177.959 115.108 177.548 112.918C177.136 110.727 177.154 108.499 177.6 106.233C178.065 103.9 179.052 101.647 180.56 99.4741C182.088 97.2344 184.322 95.3106 187.263 93.7028C190.203 92.0949 193.007 91.264 195.674 91.21C198.36 91.0892 200.789 91.4742 202.961 92.3648C205.153 93.1885 207.06 94.3646 208.682 95.893C210.348 97.3978 211.606 98.9285 212.457 100.485L222.069 118.063C223.322 120.355 224.049 122.711 224.248 125.13C224.447 127.548 224.18 129.885 223.447 132.14C222.733 134.327 221.585 136.388 220.002 138.321C218.438 140.187 216.51 141.746 214.219 143C211.278 144.607 208.465 145.472 205.778 145.593C203.111 145.647 200.67 145.24 198.455 144.373C196.283 143.482 194.386 142.273 192.763 140.744C191.141 139.216 189.905 137.674 189.053 136.117L179.441 118.539ZM210.636 136.448C212.063 135.668 213.164 134.701 213.937 133.548C214.731 132.328 215.258 131.084 215.521 129.817C215.802 128.484 215.854 127.191 215.676 125.941C215.474 124.647 215.101 123.503 214.557 122.508L204.661 104.411C204.094 103.373 203.332 102.442 202.375 101.617C201.438 100.725 200.344 100.059 199.093 99.62C197.885 99.1572 196.565 98.952 195.133 99.0047C193.745 99.0336 192.315 99.4501 190.845 100.254C189.418 101.034 188.296 102.013 187.479 103.19C186.662 104.367 186.123 105.589 185.86 106.856C185.598 108.122 185.568 109.403 185.77 110.697C185.972 111.99 186.345 113.135 186.889 114.129L196.784 132.226C197.328 133.221 198.09 134.152 199.071 135.021C200.027 135.846 201.121 136.511 202.353 137.017C203.604 137.457 204.936 137.683 206.348 137.698C207.78 137.645 209.209 137.229 210.636 136.448Z" fill="#008C95"/>
</g>
<defs>
<clipPath id="clip0_251_23522">
<rect width="250" height="250" rx="40" fill="white"/>
</clipPath>
</defs>
</svg>
