<svg width="18" height="13" viewBox="0 0 18 13" fill="none" xmlns="http://www.w3.org/2000/svg">
<path d="M5.03606 12.068H3.66484V3.68836C3.66484 2.92657 3.66484 2.31714 3.66484 1.70771C3.51249 1.86006 3.36013 2.01242 3.20777 2.01242C3.05541 2.16477 2.44598 2.62185 1.22712 3.53599L0.465332 2.62185L3.66484 0.184128H4.88371V12.068H5.03606Z" fill="white"/>
<path d="M17.8343 6.1262C17.8343 8.10685 17.5295 9.63043 16.7677 10.6969C16.1583 11.7634 15.0918 12.2205 13.7206 12.2205C12.3494 12.2205 11.4352 11.7634 10.6734 10.6969C9.91165 9.63043 9.60693 8.10685 9.60693 6.1262C9.60693 3.99319 9.91165 2.46961 10.6734 1.55547C11.2829 0.488964 12.3494 0.0318909 13.7206 0.0318909C15.0918 0.0318909 16.006 0.488964 16.7677 1.55547C17.3772 2.77433 17.8343 4.14555 17.8343 6.1262ZM11.1305 6.1262C11.1305 7.80214 11.2829 9.17336 11.7399 9.93515C12.197 10.6969 12.8064 11.154 13.7206 11.154C14.6347 11.154 15.3965 10.6969 15.7012 9.93515C16.1583 9.17336 16.3107 7.95449 16.3107 6.1262C16.3107 4.45027 16.1583 3.2314 15.7012 2.31726C15.2442 1.55547 14.6347 1.0984 13.7206 1.0984C12.8064 1.0984 12.197 1.55547 11.7399 2.31726C11.2829 3.2314 11.1305 4.45027 11.1305 6.1262Z" fill="white"/>
</svg>
