<svg width="19" height="13" viewBox="0 0 19 13" fill="none" xmlns="http://www.w3.org/2000/svg">
<path d="M4.9626 12.8818H3.59137V4.04509C3.59137 3.2833 3.59137 2.67387 3.59137 1.91208C3.43902 2.06444 3.28666 2.2168 3.1343 2.2168C2.98194 2.36916 2.22015 2.82623 1.00129 3.89273L0.239502 2.97859L3.59137 0.388504H4.81024V12.8818H4.9626Z" fill="white"/>
<path d="M18.3696 12.8818H9.83752V11.6629L13.1894 8.31105C14.2559 7.24454 14.8653 6.63511 15.17 6.17804C15.4748 5.72096 15.7795 5.26389 15.9318 4.95918C16.0842 4.5021 16.2366 4.04503 16.2366 3.58796C16.2366 2.97853 16.0842 2.36909 15.6271 2.06438C15.17 1.60731 14.5606 1.45495 13.9512 1.45495C13.4941 1.45495 12.8847 1.6073 12.4276 1.75966C11.9705 1.91202 11.3611 2.21674 10.904 2.67381L10.1422 1.75966C11.3611 0.845516 12.58 0.388443 13.9512 0.388443C15.17 0.388443 16.0842 0.693159 16.846 1.30259C17.6078 1.91202 17.9125 2.67381 17.9125 3.74031C17.9125 4.5021 17.6078 5.26389 17.1507 6.02568C16.6936 6.78747 15.7795 7.70162 14.5606 8.92048L11.8182 11.5106H18.3696V12.8818Z" fill="white"/>
</svg>
