<svg width="9" height="13" viewBox="0 0 9 13" fill="none" xmlns="http://www.w3.org/2000/svg">
<path d="M8.07776 12.0681H0.00280762V10.8492L3.20232 7.64973C4.11646 6.73559 4.87826 5.9738 5.18297 5.51673C5.48769 5.05965 5.7924 4.75493 5.94476 4.29786C6.09712 3.84079 6.24947 3.53607 6.24947 3.079C6.24947 2.46957 6.09711 2.0125 5.64004 1.55542C5.18297 1.25071 4.7259 0.945995 3.96411 0.945995C3.50703 0.945995 3.04996 1.09835 2.44053 1.25071C1.98346 1.40306 1.52638 1.70778 0.916952 2.16486L0.155163 1.40307C1.22167 0.488921 2.44053 0.0318451 3.81175 0.0318451C5.03061 0.0318451 5.7924 0.336564 6.55418 0.945995C7.16362 1.55543 7.46834 2.31721 7.46834 3.23136C7.46834 3.99315 7.31598 4.75494 6.85891 5.51673C6.40183 6.27852 5.64005 7.19266 4.42119 8.25917L1.67874 10.8492H7.92541V12.0681H8.07776Z" fill="white"/>
</svg>
