<svg width="9" height="13" viewBox="0 0 9 13" fill="none" xmlns="http://www.w3.org/2000/svg">
<path d="M4.3292 4.7621C5.54806 4.7621 6.61456 5.06682 7.37635 5.67625C8.13814 6.28568 8.44285 7.19983 8.44285 8.26634C8.44285 9.4852 7.98577 10.3993 7.22398 11.1611C6.4622 11.9229 5.24334 12.2276 3.87212 12.2276C2.5009 12.2276 1.4344 12.0753 0.672607 11.6182V10.247C1.12968 10.5517 1.58675 10.7041 2.19618 10.8564C2.80562 11.0088 3.41504 11.0088 3.87212 11.0088C4.78626 11.0088 5.54805 10.8564 6.15748 10.3993C6.76692 9.94227 6.91927 9.33284 6.91927 8.41869C6.91927 6.74276 5.85277 5.98097 3.71976 5.98097C3.26269 5.98097 2.5009 6.13332 1.58675 6.28568L0.824963 5.82861L1.28204 0.343727H7.37635V1.56259H2.5009L2.34854 4.91446C2.95797 4.7621 3.56741 4.7621 4.3292 4.7621Z" fill="white"/>
</svg>
