<svg width="25" height="28" viewBox="0 0 25 28" fill="none" xmlns="http://www.w3.org/2000/svg">
<g id="Group">
<g id="Vector">
<mask id="path-1-inside-1_176_150" fill="white">
<path d="M24.3726 2.16235H20.5097H20.0479C20.0479 2.11889 20.0479 2.08085 20.0479 2.03739C20.0479 2.02652 20.0479 2.01566 20.0479 2.00479C20.0479 1.96676 20.0479 1.92873 20.0479 1.8907C20.0479 1.7766 20.0479 1.66251 20.0479 1.54298C20.2598 1.54298 20.4554 1.45606 20.5967 1.32023C20.7379 1.17897 20.8194 0.988814 20.8194 0.771492C20.8248 0.347715 20.4826 0 20.0534 0H18.3582H4.93863C4.72675 0 4.53116 0.0869287 4.3899 0.222755C4.24864 0.364014 4.16714 0.55417 4.16714 0.771492C4.16714 1.19527 4.51486 1.54298 4.93863 1.54298C4.93863 1.64621 4.93863 1.75487 4.93863 1.8581C4.93863 1.91243 4.93863 1.97219 4.94407 2.02652C4.94407 2.06999 4.94407 2.11345 4.94407 2.15692H4.3247H0.619367C0.277085 2.16235 0 2.43944 0 2.77628V5.40044C0 9.65995 3.45541 13.1208 7.71492 13.1208H7.92681H8.54618C9.01342 13.6369 9.50782 14.0607 10.0348 14.3867V14.6964V15.2831C10.0348 15.7069 10.3825 16.0546 10.8063 16.0546H10.9584V16.511V17.0326C10.9584 18.2387 10.3065 19.3525 9.2579 19.9447L8.6494 20.287C8.55161 20.3413 8.49184 20.4445 8.49184 20.5532V21.9169H15.745H16.5164V20.5532C16.5164 20.4445 16.4567 20.3413 16.3589 20.287L15.7504 19.9447C14.6964 19.3525 14.0498 18.2387 14.0498 17.0326V16.511V16.0546H14.202C14.6257 16.0546 14.9735 15.7069 14.9735 15.2831V14.6964V14.3867C15.0115 14.365 15.0495 14.3378 15.0876 14.3161C15.1039 14.3052 15.1202 14.2943 15.1365 14.2835C15.1745 14.2563 15.2179 14.2291 15.256 14.202C15.2723 14.1911 15.2886 14.1748 15.3103 14.1639C15.3483 14.1368 15.3864 14.1096 15.4244 14.077C15.4407 14.0607 15.4624 14.0498 15.4787 14.0335C15.5168 14.0064 15.5548 13.9738 15.5928 13.9466C15.6091 13.9303 15.6309 13.914 15.6472 13.9032C15.6852 13.876 15.7178 13.8434 15.7558 13.8108C15.7721 13.7945 15.7939 13.7782 15.8102 13.7619C15.8482 13.7293 15.8808 13.7021 15.9134 13.6695C15.9297 13.6532 15.9514 13.6369 15.9677 13.6152C16.0003 13.5826 16.0383 13.55 16.0709 13.5174C16.0927 13.5011 16.109 13.4794 16.1307 13.4631C16.1633 13.4305 16.1959 13.3979 16.2339 13.3598C16.2557 13.3381 16.272 13.3218 16.2883 13.3001C16.3209 13.2675 16.3535 13.2295 16.3861 13.1969C16.4024 13.1751 16.4241 13.1534 16.4404 13.1371C16.4458 13.1317 16.4513 13.1262 16.4567 13.1208H16.9185H17.2825C21.542 13.1208 24.9974 9.66538 24.9974 5.40044V2.77628C24.992 2.43944 24.7149 2.16235 24.3726 2.16235ZM1.2333 5.40044V3.39565H4.3899H5.00926C5.26462 6.78044 6.2154 9.76861 7.59539 11.8821C7.37807 11.8766 7.16075 11.8658 6.94886 11.8386C3.7325 11.4583 1.2333 8.72003 1.2333 5.40044ZM23.7587 5.40044C23.7587 8.78523 21.1563 11.5724 17.8475 11.8603C17.7823 11.8658 17.7226 11.8712 17.6574 11.8712C17.6465 11.8712 17.6357 11.8712 17.6248 11.8712C17.5487 11.8766 17.4727 11.8766 17.3966 11.8821L17.402 11.8766C17.4183 11.8549 17.4346 11.8277 17.4509 11.806C17.4835 11.7571 17.5107 11.7082 17.5433 11.6593C17.5596 11.6376 17.5705 11.6158 17.5868 11.5887C17.6194 11.5343 17.652 11.4854 17.6791 11.4311C17.69 11.4094 17.7063 11.3931 17.7171 11.3714C17.7552 11.3116 17.7878 11.2464 17.8258 11.1812C17.8312 11.1703 17.8421 11.1595 17.8475 11.1432C17.9345 10.991 18.016 10.8335 18.0975 10.6759C18.1083 10.6596 18.1138 10.6379 18.1246 10.6216C18.1572 10.5618 18.1844 10.5021 18.217 10.4369C18.2333 10.4097 18.2442 10.3771 18.255 10.3499C18.2822 10.2956 18.3039 10.2467 18.3311 10.1924C18.3474 10.1598 18.3637 10.1272 18.3745 10.0946C18.3963 10.0457 18.418 9.9968 18.4397 9.9479C18.456 9.90987 18.4723 9.87727 18.4886 9.83924C18.5104 9.79034 18.5321 9.74144 18.5484 9.69255C18.5647 9.65451 18.581 9.61648 18.5973 9.57845C18.619 9.52956 18.6353 9.48066 18.6571 9.43176C18.6734 9.39373 18.6897 9.35026 18.706 9.31223C18.7223 9.26334 18.744 9.21444 18.7603 9.17097C18.7766 9.12751 18.7929 9.08948 18.8092 9.04601C18.8255 8.99712 18.8472 8.94822 18.8635 8.90475C18.8798 8.86129 18.8961 8.81783 18.907 8.77436C18.9233 8.72546 18.9396 8.67657 18.9559 8.62767C18.9722 8.58421 18.983 8.54074 18.9993 8.49728C19.0156 8.44838 19.0319 8.39948 19.0482 8.35058C19.0645 8.30712 19.0754 8.26366 19.0917 8.21476C19.108 8.16586 19.1243 8.11696 19.1352 8.06807C19.1515 8.0246 19.1623 7.97571 19.1786 7.93224C19.1949 7.88334 19.2058 7.83445 19.2221 7.78555C19.233 7.74208 19.2493 7.69319 19.2601 7.64429C19.2764 7.59539 19.2873 7.54649 19.3036 7.49216C19.3145 7.44327 19.3308 7.3998 19.3416 7.35091C19.3525 7.30201 19.3688 7.24768 19.3797 7.19878C19.3905 7.14988 19.4014 7.10099 19.4177 7.05752C19.4286 7.00862 19.4449 6.95429 19.4557 6.9054C19.4666 6.8565 19.4775 6.8076 19.4883 6.7587C19.4992 6.70437 19.5101 6.65548 19.5264 6.60115C19.5372 6.55225 19.5481 6.50335 19.559 6.45445C19.5698 6.40012 19.5807 6.35123 19.5915 6.2969C19.6024 6.248 19.6133 6.1991 19.6241 6.1502C19.635 6.09587 19.6459 6.04154 19.6567 5.99265C19.6676 5.94375 19.6785 5.89485 19.6839 5.84052C19.6948 5.78619 19.7056 5.73186 19.7111 5.67753C19.7219 5.62863 19.7274 5.57973 19.7382 5.5254C19.7491 5.47107 19.7545 5.41674 19.7654 5.36241C19.7763 5.31351 19.7817 5.25918 19.7871 5.21029C19.798 5.15596 19.8034 5.10163 19.8143 5.04186C19.8197 4.99297 19.8306 4.93863 19.836 4.88974C19.8415 4.83541 19.8523 4.77564 19.8578 4.72131C19.8632 4.67242 19.8741 4.61809 19.8795 4.56919C19.8849 4.51486 19.8958 4.45509 19.9012 4.39533C19.9067 4.34643 19.9121 4.2921 19.9175 4.24321C19.923 4.18344 19.9284 4.12911 19.9338 4.06935C19.9393 4.02045 19.9447 3.96612 19.9501 3.91722C19.9556 3.85746 19.961 3.7977 19.9664 3.73793C19.9719 3.68904 19.9773 3.6347 19.9827 3.58581C19.9882 3.52604 19.9936 3.46628 19.999 3.40652C19.999 3.40652 19.999 3.40652 19.999 3.40108H20.4608H23.7696V5.40044H23.7587Z"/>
</mask>
<path d="M24.3726 2.16235H20.5097H20.0479C20.0479 2.11889 20.0479 2.08085 20.0479 2.03739C20.0479 2.02652 20.0479 2.01566 20.0479 2.00479C20.0479 1.96676 20.0479 1.92873 20.0479 1.8907C20.0479 1.7766 20.0479 1.66251 20.0479 1.54298C20.2598 1.54298 20.4554 1.45606 20.5967 1.32023C20.7379 1.17897 20.8194 0.988814 20.8194 0.771492C20.8248 0.347715 20.4826 0 20.0534 0H18.3582H4.93863C4.72675 0 4.53116 0.0869287 4.3899 0.222755C4.24864 0.364014 4.16714 0.55417 4.16714 0.771492C4.16714 1.19527 4.51486 1.54298 4.93863 1.54298C4.93863 1.64621 4.93863 1.75487 4.93863 1.8581C4.93863 1.91243 4.93863 1.97219 4.94407 2.02652C4.94407 2.06999 4.94407 2.11345 4.94407 2.15692H4.3247H0.619367C0.277085 2.16235 0 2.43944 0 2.77628V5.40044C0 9.65995 3.45541 13.1208 7.71492 13.1208H7.92681H8.54618C9.01342 13.6369 9.50782 14.0607 10.0348 14.3867V14.6964V15.2831C10.0348 15.7069 10.3825 16.0546 10.8063 16.0546H10.9584V16.511V17.0326C10.9584 18.2387 10.3065 19.3525 9.2579 19.9447L8.6494 20.287C8.55161 20.3413 8.49184 20.4445 8.49184 20.5532V21.9169H15.745H16.5164V20.5532C16.5164 20.4445 16.4567 20.3413 16.3589 20.287L15.7504 19.9447C14.6964 19.3525 14.0498 18.2387 14.0498 17.0326V16.511V16.0546H14.202C14.6257 16.0546 14.9735 15.7069 14.9735 15.2831V14.6964V14.3867C15.0115 14.365 15.0495 14.3378 15.0876 14.3161C15.1039 14.3052 15.1202 14.2943 15.1365 14.2835C15.1745 14.2563 15.2179 14.2291 15.256 14.202C15.2723 14.1911 15.2886 14.1748 15.3103 14.1639C15.3483 14.1368 15.3864 14.1096 15.4244 14.077C15.4407 14.0607 15.4624 14.0498 15.4787 14.0335C15.5168 14.0064 15.5548 13.9738 15.5928 13.9466C15.6091 13.9303 15.6309 13.914 15.6472 13.9032C15.6852 13.876 15.7178 13.8434 15.7558 13.8108C15.7721 13.7945 15.7939 13.7782 15.8102 13.7619C15.8482 13.7293 15.8808 13.7021 15.9134 13.6695C15.9297 13.6532 15.9514 13.6369 15.9677 13.6152C16.0003 13.5826 16.0383 13.55 16.0709 13.5174C16.0927 13.5011 16.109 13.4794 16.1307 13.4631C16.1633 13.4305 16.1959 13.3979 16.2339 13.3598C16.2557 13.3381 16.272 13.3218 16.2883 13.3001C16.3209 13.2675 16.3535 13.2295 16.3861 13.1969C16.4024 13.1751 16.4241 13.1534 16.4404 13.1371C16.4458 13.1317 16.4513 13.1262 16.4567 13.1208H16.9185H17.2825C21.542 13.1208 24.9974 9.66538 24.9974 5.40044V2.77628C24.992 2.43944 24.7149 2.16235 24.3726 2.16235ZM1.2333 5.40044V3.39565H4.3899H5.00926C5.26462 6.78044 6.2154 9.76861 7.59539 11.8821C7.37807 11.8766 7.16075 11.8658 6.94886 11.8386C3.7325 11.4583 1.2333 8.72003 1.2333 5.40044ZM23.7587 5.40044C23.7587 8.78523 21.1563 11.5724 17.8475 11.8603C17.7823 11.8658 17.7226 11.8712 17.6574 11.8712C17.6465 11.8712 17.6357 11.8712 17.6248 11.8712C17.5487 11.8766 17.4727 11.8766 17.3966 11.8821L17.402 11.8766C17.4183 11.8549 17.4346 11.8277 17.4509 11.806C17.4835 11.7571 17.5107 11.7082 17.5433 11.6593C17.5596 11.6376 17.5705 11.6158 17.5868 11.5887C17.6194 11.5343 17.652 11.4854 17.6791 11.4311C17.69 11.4094 17.7063 11.3931 17.7171 11.3714C17.7552 11.3116 17.7878 11.2464 17.8258 11.1812C17.8312 11.1703 17.8421 11.1595 17.8475 11.1432C17.9345 10.991 18.016 10.8335 18.0975 10.6759C18.1083 10.6596 18.1138 10.6379 18.1246 10.6216C18.1572 10.5618 18.1844 10.5021 18.217 10.4369C18.2333 10.4097 18.2442 10.3771 18.255 10.3499C18.2822 10.2956 18.3039 10.2467 18.3311 10.1924C18.3474 10.1598 18.3637 10.1272 18.3745 10.0946C18.3963 10.0457 18.418 9.9968 18.4397 9.9479C18.456 9.90987 18.4723 9.87727 18.4886 9.83924C18.5104 9.79034 18.5321 9.74144 18.5484 9.69255C18.5647 9.65451 18.581 9.61648 18.5973 9.57845C18.619 9.52956 18.6353 9.48066 18.6571 9.43176C18.6734 9.39373 18.6897 9.35026 18.706 9.31223C18.7223 9.26334 18.744 9.21444 18.7603 9.17097C18.7766 9.12751 18.7929 9.08948 18.8092 9.04601C18.8255 8.99712 18.8472 8.94822 18.8635 8.90475C18.8798 8.86129 18.8961 8.81783 18.907 8.77436C18.9233 8.72546 18.9396 8.67657 18.9559 8.62767C18.9722 8.58421 18.983 8.54074 18.9993 8.49728C19.0156 8.44838 19.0319 8.39948 19.0482 8.35058C19.0645 8.30712 19.0754 8.26366 19.0917 8.21476C19.108 8.16586 19.1243 8.11696 19.1352 8.06807C19.1515 8.0246 19.1623 7.97571 19.1786 7.93224C19.1949 7.88334 19.2058 7.83445 19.2221 7.78555C19.233 7.74208 19.2493 7.69319 19.2601 7.64429C19.2764 7.59539 19.2873 7.54649 19.3036 7.49216C19.3145 7.44327 19.3308 7.3998 19.3416 7.35091C19.3525 7.30201 19.3688 7.24768 19.3797 7.19878C19.3905 7.14988 19.4014 7.10099 19.4177 7.05752C19.4286 7.00862 19.4449 6.95429 19.4557 6.9054C19.4666 6.8565 19.4775 6.8076 19.4883 6.7587C19.4992 6.70437 19.5101 6.65548 19.5264 6.60115C19.5372 6.55225 19.5481 6.50335 19.559 6.45445C19.5698 6.40012 19.5807 6.35123 19.5915 6.2969C19.6024 6.248 19.6133 6.1991 19.6241 6.1502C19.635 6.09587 19.6459 6.04154 19.6567 5.99265C19.6676 5.94375 19.6785 5.89485 19.6839 5.84052C19.6948 5.78619 19.7056 5.73186 19.7111 5.67753C19.7219 5.62863 19.7274 5.57973 19.7382 5.5254C19.7491 5.47107 19.7545 5.41674 19.7654 5.36241C19.7763 5.31351 19.7817 5.25918 19.7871 5.21029C19.798 5.15596 19.8034 5.10163 19.8143 5.04186C19.8197 4.99297 19.8306 4.93863 19.836 4.88974C19.8415 4.83541 19.8523 4.77564 19.8578 4.72131C19.8632 4.67242 19.8741 4.61809 19.8795 4.56919C19.8849 4.51486 19.8958 4.45509 19.9012 4.39533C19.9067 4.34643 19.9121 4.2921 19.9175 4.24321C19.923 4.18344 19.9284 4.12911 19.9338 4.06935C19.9393 4.02045 19.9447 3.96612 19.9501 3.91722C19.9556 3.85746 19.961 3.7977 19.9664 3.73793C19.9719 3.68904 19.9773 3.6347 19.9827 3.58581C19.9882 3.52604 19.9936 3.46628 19.999 3.40652C19.999 3.40652 19.999 3.40652 19.999 3.40108H20.4608H23.7696V5.40044H23.7587Z" fill="white" stroke="white" stroke-width="2" mask="url(#path-1-inside-1_176_150)"/>
</g>
<path id="Vector_2" d="M17.2389 26.5513V27.0513H17.7389H18.1625V27.29H17.7334H6.8186V27.0513H7.24765H7.74765V26.5513V21.803H16.8098H17.2389V26.5513Z" fill="white" stroke="white"/>
<path id="Vector_3" d="M16.196 22.846V25.0084C16.196 25.1768 16.0547 25.318 15.8863 25.318H9.10045C8.93203 25.318 8.79077 25.1768 8.79077 25.0084V22.846C8.79077 22.6776 8.93203 22.5363 9.10045 22.5363H15.8863C16.0602 22.5363 16.196 22.6721 16.196 22.846Z" fill="white"/>
</g>
</svg>
