<svg width="105" height="18" viewBox="0 0 105 18" fill="none" xmlns="http://www.w3.org/2000/svg">
<g clip-path="url(#clip0_483_11)">
<path fill-rule="evenodd" clip-rule="evenodd" d="M99.5 6.49991L71.5 6.49991V3C71.5 1.61929 70.3807 0.5 69 0.5C67.6193 0.5 66.5 1.61929 66.5 3V6.49991L38.5 6.49991V3C38.5 1.61929 37.3807 0.5 36 0.5C34.6193 0.5 33.5 1.61929 33.5 3V6.49991L5.49996 6.49991V3C5.49996 1.61929 4.38106 0.5 3.00006 0.5C1.61906 0.5 0.500061 1.61929 0.500061 3V15C0.500061 16.3807 1.61906 17.5 3.00006 17.5C4.38106 17.5 5.49996 16.3807 5.49996 15V11.4999L33.5 11.4999V15C33.5 16.3807 34.6193 17.5 36 17.5C37.3807 17.5 38.5 16.3807 38.5 15V11.4999L66.5 11.4999V15C66.5 16.3807 67.6193 17.5 69 17.5C70.3807 17.5 71.5 16.3807 71.5 15V11.4999L99.5 11.4999V15C99.5 16.3807 100.619 17.5 102 17.5C103.381 17.5 104.5 16.3807 104.5 15V8.99991V3C104.5 1.61929 103.381 0.5 102 0.5C100.619 0.5 99.5 1.61929 99.5 3V6.49991Z" fill="white" fill-opacity="0.5"/>
</g>
<defs>
<clipPath id="clip0_483_11">
<rect width="17" height="104" fill="white" transform="matrix(0 1 -1 0 104.5 0.5)"/>
</clipPath>
</defs>
</svg>
